<svg width="26" height="17" viewBox="0 0 26 17" fill="none" xmlns="http://www.w3.org/2000/svg">
<path d="M5.95216 12.265C5.95216 12.265 5.35629 12.6118 6.37679 12.7288C7.61329 12.87 8.24516 12.8498 9.60741 12.5923C9.60741 12.5923 9.96629 12.8166 10.4665 13.0111C7.41166 14.3199 3.55304 12.9353 5.95216 12.265ZM5.57866 10.5569C5.57866 10.5569 4.91016 11.0518 5.93154 11.1575C7.25241 11.2939 8.29529 11.305 10.1008 10.9575C10.1008 10.9575 10.3499 11.2106 10.7423 11.3489C7.04954 12.4289 2.93654 11.4339 5.57866 10.5569Z" fill="#0074BD"/>
<path d="M8.72532 7.65887C9.47844 8.52575 8.52782 9.30512 8.52782 9.30512C8.52782 9.30512 10.4389 8.31875 9.56144 7.083C8.74157 5.93112 8.11307 5.359 11.5158 3.3855C11.5158 3.38562 6.17444 4.71925 8.72532 7.65887Z" fill="#EA2D2E"/>
<path d="M12.7653 13.5286C12.7653 13.5286 13.2064 13.8924 12.2793 14.1735C10.5166 14.7075 4.94105 14.8685 3.39255 14.1949C2.83618 13.9526 3.87993 13.6167 4.2083 13.5459C4.55068 13.4717 4.74618 13.4852 4.74618 13.4852C4.12705 13.0494 0.744554 14.3415 3.0283 14.7121C9.25593 15.7216 14.3804 14.2575 12.7653 13.5286ZM6.23893 8.78675C6.23893 8.78675 3.40318 9.46037 5.2348 9.70525C6.0083 9.80875 7.54955 9.785 8.98618 9.6645C10.1599 9.56587 11.3378 9.35525 11.3378 9.35525C11.3378 9.35525 10.9243 9.53262 10.6248 9.73687C7.74455 10.4945 2.1818 10.1416 3.78343 9.36712C5.13743 8.71225 6.23893 8.78675 6.23893 8.78675ZM11.3261 11.6301C14.2537 10.1092 12.8999 8.64762 11.9551 8.8445C11.7241 8.89262 11.6204 8.9345 11.6204 8.9345C11.6204 8.9345 11.7064 8.79962 11.8704 8.74162C13.7396 8.08475 15.1768 10.6795 11.2676 11.7072C11.2676 11.707 11.3124 11.6664 11.3261 11.6301Z" fill="#0074BD"/>
<path d="M9.56152 0.198486C9.56152 0.198486 11.1825 1.82049 8.02364 4.31386C5.49039 6.31461 7.44602 7.45511 8.02277 8.75874C6.54389 7.42461 5.45914 6.24999 6.18677 5.15686C7.25527 3.55261 10.2154 2.77449 9.56152 0.198486Z" fill="#EA2D2E"/>
<path d="M6.52668 15.7527C9.33618 15.9324 13.6517 15.6527 13.7538 14.3232C13.7538 14.3232 13.5574 14.8272 11.4317 15.2271C9.03343 15.6786 6.07493 15.626 4.3208 15.3364C4.3208 15.3365 4.68018 15.634 6.52668 15.7527Z" fill="#0074BD"/>
<path d="M18.9334 4.33969C18.4716 4.34187 18.0309 4.38114 17.6428 4.44983C16.4998 4.65173 16.2924 5.07436 16.2924 5.85387V6.8832H18.9932V7.22631H15.2788C14.4939 7.22631 13.8066 7.69805 13.5915 8.5958C13.3435 9.62447 13.3325 10.2665 13.5915 11.3407C13.7835 12.1403 14.242 12.7099 15.027 12.7099H15.9557V11.476C15.9557 10.5845 16.7269 9.79816 17.6429 9.79816H20.3406C21.0916 9.79816 21.691 9.17975 21.691 8.42572V5.85398C21.691 5.12194 21.0734 4.57211 20.3406 4.44994C19.8764 4.37272 19.3951 4.33761 18.9334 4.33969ZM17.4728 5.16755C17.7517 5.16755 17.9797 5.39909 17.9797 5.68391C17.9797 5.96751 17.7518 6.19687 17.4728 6.19687C17.1928 6.19687 16.9661 5.96751 16.9661 5.68391C16.966 5.39909 17.1928 5.16755 17.4728 5.16755Z" fill="url(#paint0_linear_134_40)"/>
<path d="M22.0278 7.22618V8.42559C22.0278 9.35528 21.2394 10.1379 20.3406 10.1379H17.6428C16.9039 10.1379 16.2925 10.7704 16.2925 11.5104V14.0824C16.2925 14.8142 16.9288 15.2448 17.6428 15.4547C18.4977 15.7059 19.3176 15.7514 20.3406 15.4547C21.0204 15.2577 21.6909 14.8615 21.6909 14.0824V13.0529H18.9933V12.7097H23.0415C23.8263 12.7097 24.119 12.1623 24.392 11.3404C24.674 10.4944 24.6619 9.68078 24.392 8.59556C24.198 7.81407 23.8275 7.22607 23.0415 7.22607L22.0278 7.22618ZM20.5104 13.7391C20.7905 13.7391 21.0173 13.9685 21.0173 14.2523C21.0173 14.5369 20.7904 14.7685 20.5104 14.7685C20.2315 14.7685 20.0037 14.5369 20.0037 14.2523C20.0037 13.9685 20.2315 13.7391 20.5104 13.7391Z" fill="url(#paint1_linear_134_40)"/>
<path opacity="0.444" d="M22.6431 16.081C22.6431 16.4685 21.0226 16.7828 19.0237 16.7828C17.0248 16.7828 15.4043 16.4685 15.4043 16.081C15.4043 15.6935 17.0247 15.3792 19.0237 15.3792C21.0226 15.3792 22.6431 15.6933 22.6431 16.081Z" fill="url(#paint2_radial_134_40)"/>
<defs>
<linearGradient id="paint0_linear_134_40" x1="13.1306" y1="4.66154" x2="19.3599" y2="9.97387" gradientUnits="userSpaceOnUse">
<stop stop-color="#5A9FD4"/>
<stop offset="1" stop-color="#306998"/>
</linearGradient>
<linearGradient id="paint1_linear_134_40" x1="21.7037" y1="13.276" x2="19.4698" y2="10.1432" gradientUnits="userSpaceOnUse">
<stop stop-color="#FFD43B"/>
<stop offset="1" stop-color="#FFE873"/>
</linearGradient>
<radialGradient id="paint2_radial_134_40" cx="0" cy="0" r="1" gradientUnits="userSpaceOnUse" gradientTransform="translate(19.0091 16.0609) rotate(-90) scale(0.702004 3.08589)">
<stop stop-color="#B8B8B8" stop-opacity="0.498"/>
<stop offset="1" stop-color="#7F7F7F" stop-opacity="0"/>
</radialGradient>
</defs>
</svg>
