<svg width="50" height="50" viewBox="0 0 50 50" fill="none" xmlns="http://www.w3.org/2000/svg">
<path d="M34.6154 18.75C34.6154 18.75 34.6154 30.7992 34.6154 31.7308C34.6154 33.3239 30.3104 34.6154 25 34.6154C19.6896 34.6154 15.3846 33.3239 15.3846 31.7308C15.3846 30.8376 15.3846 18.75 15.3846 18.75" stroke="white" stroke-width="2" stroke-linecap="round" stroke-linejoin="round"/>
<path d="M34.6154 27.4038C34.6154 28.9969 30.3104 30.2884 25 30.2884C19.6896 30.2884 15.3846 28.9969 15.3846 27.4038" stroke="white" stroke-width="2" stroke-linecap="round" stroke-linejoin="round"/>
<path d="M34.6154 23.0769C34.6154 24.67 30.3104 25.9615 25 25.9615C19.6896 25.9615 15.3846 24.67 15.3846 23.0769" stroke="white" stroke-width="2" stroke-linecap="round" stroke-linejoin="round"/>
<path d="M25 21.1538C30.3104 21.1538 34.6154 19.8623 34.6154 18.2691C34.6154 16.676 30.3104 15.3845 25 15.3845C19.6896 15.3845 15.3846 16.676 15.3846 18.2691C15.3846 19.8623 19.6896 21.1538 25 21.1538Z" fill="#2F88FF" stroke="white" stroke-width="2" stroke-linecap="round" stroke-linejoin="round"/>
<path d="M30.2896 39.5834V37.5001H34.3354C35.2188 37.5001 35.9674 37.2001 36.5812 36.6001C37.1937 36.0015 37.5 35.2862 37.5 34.4542V30.048C37.5 28.8883 37.8556 27.864 38.5667 26.9751C39.2764 26.0862 40.1896 25.482 41.3062 25.1626V24.8355C40.1896 24.5174 39.2764 23.914 38.5667 23.0251C37.8556 22.1362 37.5 21.1119 37.5 19.9522V15.5438C37.5 14.7133 37.1937 13.998 36.5812 13.398C35.9674 12.7994 35.2181 12.5001 34.3333 12.5001H30.2854V10.4167H34.3333C35.8014 10.4167 37.0431 10.9174 38.0583 11.9188C39.0736 12.9202 39.5819 14.1286 39.5833 15.5438V19.9522C39.5833 20.8369 39.9028 21.5786 40.5417 22.1772C41.1819 22.7772 41.9576 23.0772 42.8687 23.0772H43.75V26.923H42.8687C41.9576 26.923 41.1819 27.223 40.5417 27.823C39.9014 28.423 39.5819 29.1647 39.5833 30.048V34.4563C39.5833 35.8716 39.0764 37.0799 38.0625 38.0813C37.0458 39.0827 35.8028 39.5834 34.3333 39.5834H30.2896ZM15.6646 39.5834C14.2229 39.5834 12.9875 39.0827 11.9583 38.0813C10.9292 37.0799 10.4153 35.8716 10.4167 34.4563V30.048C10.4167 29.1633 10.0972 28.4216 9.45833 27.823C8.81806 27.223 8.04236 26.923 7.13125 26.923H6.25V23.0772H7.13125C8.04236 23.0772 8.81806 22.7772 9.45833 22.1772C10.0972 21.5786 10.4167 20.8369 10.4167 19.9522V15.5438C10.4167 14.1286 10.9306 12.9202 11.9583 11.9188C12.9861 10.9174 14.2222 10.4167 15.6667 10.4167H19.75V12.5001H15.6667C14.8083 12.5001 14.066 12.8001 13.4396 13.4001C12.8132 14.0001 12.5 14.7154 12.5 15.5459V19.9522C12.5 21.1119 12.1514 22.1362 11.4542 23.0251C10.7569 23.914 9.83681 24.5181 8.69375 24.8376V25.1647C9.83681 25.4827 10.7569 26.0862 11.4542 26.9751C12.1514 27.864 12.5 28.8883 12.5 30.048V34.4563C12.5 35.2855 12.8132 36.0008 13.4396 36.6022C14.066 37.2036 14.8076 37.5029 15.6646 37.5001H19.7521V39.5834H15.6646Z" fill="white"/>
</svg>
