<svg width="38" height="38" viewBox="0 0 38 38" fill="none" xmlns="http://www.w3.org/2000/svg">
<path d="M15.3742 9.95919C15.227 9.81079 15.0519 9.693 14.8589 9.61261C14.666 9.53223 14.459 9.49084 14.25 9.49084C14.041 9.49084 13.834 9.53223 13.6411 9.61261C13.4481 9.693 13.273 9.81079 13.1258 9.95919L5.20916 17.8759C5.06076 18.0231 4.94297 18.1982 4.86258 18.3911C4.7822 18.5841 4.74081 18.791 4.74081 19C4.74081 19.209 4.7822 19.416 4.86258 19.6089C4.94297 19.8019 5.06076 19.977 5.20916 20.1242L13.1258 28.0409C13.273 28.1893 13.4481 28.3071 13.6411 28.3874C13.834 28.4678 14.041 28.5092 14.25 28.5092C14.459 28.5092 14.666 28.4678 14.8589 28.3874C15.0519 28.3071 15.227 28.1893 15.3742 28.0409C15.5226 27.8937 15.6404 27.7185 15.7207 27.5256C15.8011 27.3327 15.8425 27.1257 15.8425 26.9167C15.8425 26.7077 15.8011 26.5007 15.7207 26.3078C15.6404 26.1148 15.5226 25.9397 15.3742 25.7925L8.56583 19L15.3742 12.2075C15.5226 12.0603 15.6404 11.8852 15.7207 11.6923C15.8011 11.4993 15.8425 11.2924 15.8425 11.0834C15.8425 10.8743 15.8011 10.6674 15.7207 10.4744C15.6404 10.2815 15.5226 10.1064 15.3742 9.95919ZM32.7908 17.8759L24.8742 9.95919C24.7265 9.81156 24.5513 9.69446 24.3584 9.61456C24.1655 9.53467 23.9588 9.49355 23.75 9.49355C23.3284 9.49355 22.924 9.66104 22.6258 9.95919C22.4782 10.1068 22.3611 10.2821 22.2812 10.475C22.2013 10.6678 22.1602 10.8746 22.1602 11.0834C22.1602 11.505 22.3277 11.9094 22.6258 12.2075L29.4342 19L22.6258 25.7925C22.4774 25.9397 22.3596 26.1148 22.2793 26.3078C22.1989 26.5007 22.1575 26.7077 22.1575 26.9167C22.1575 27.1257 22.1989 27.3327 22.2793 27.5256C22.3596 27.7185 22.4774 27.8937 22.6258 28.0409C22.773 28.1893 22.9481 28.3071 23.1411 28.3874C23.334 28.4678 23.541 28.5092 23.75 28.5092C23.959 28.5092 24.166 28.4678 24.3589 28.3874C24.5519 28.3071 24.727 28.1893 24.8742 28.0409L32.7908 20.1242C32.9392 19.977 33.057 19.8019 33.1374 19.6089C33.2178 19.416 33.2592 19.209 33.2592 19C33.2592 18.791 33.2178 18.5841 33.1374 18.3911C33.057 18.1982 32.9392 18.0231 32.7908 17.8759Z" fill="#4A7DBF"/>
<rect x="24.1947" y="4.87939" width="2" height="30.7254" transform="rotate(21.8746 24.1947 4.87939)" fill="#4A7DBF"/>
</svg>
