<svg width="19" height="9" viewBox="0 0 19 9" fill="none" xmlns="http://www.w3.org/2000/svg">
<path d="M5.08789 0.0878906H12.9119V7.91195H5.08789V0.0878906Z" fill="#F0DB4F"/>
<path d="M12.2718 6.04605C12.2145 5.68912 11.9818 5.3893 11.2923 5.10974C11.0528 4.99968 10.7858 4.92087 10.7063 4.73937C10.678 4.63374 10.6743 4.57424 10.6922 4.5103C10.7435 4.3028 10.9912 4.23812 11.1875 4.29762C11.3139 4.33999 11.4336 4.43743 11.5058 4.59287C11.8434 4.37424 11.8427 4.37568 12.0785 4.22543C11.9922 4.09162 11.9461 4.02987 11.8896 3.97262C11.6865 3.7458 11.4098 3.62899 10.9673 3.63793L10.7368 3.66774C10.516 3.72355 10.3055 3.83949 10.182 3.99493C9.81166 4.41518 9.91728 5.15068 10.368 5.45337C10.812 5.78662 11.4642 5.86243 11.5475 6.17405C11.6286 6.55555 11.2672 6.67905 10.9079 6.63518C10.6432 6.58012 10.4959 6.44555 10.3367 6.20087C10.0437 6.37043 10.0437 6.37043 9.74247 6.54368C9.81391 6.69987 9.88897 6.77055 10.0087 6.90587C10.5755 7.48074 11.9937 7.45249 12.2481 6.58237C12.2584 6.55249 12.3269 6.35324 12.2718 6.04605ZM9.34153 3.68399H8.60972L8.60672 5.57599C8.60672 5.97837 8.62753 6.34724 8.56209 6.4603C8.45503 6.68268 8.17759 6.65512 8.05116 6.61199C7.92247 6.54874 7.85703 6.4588 7.78122 6.33168C7.76041 6.29518 7.74478 6.26693 7.73953 6.26474L7.14453 6.62912C7.24347 6.83218 7.38922 7.00843 7.57591 7.12293C7.85478 7.2903 8.22959 7.34162 8.62159 7.25162C8.87672 7.1773 9.09684 7.02337 9.21209 6.78905C9.37872 6.48187 9.34297 6.11005 9.34147 5.6988C9.34522 5.02787 9.34153 4.35705 9.34153 3.68399Z" fill="#323330"/>
<path d="M12.4753 7.80025L11.9136 1.5H18.0861L17.5236 7.79925L14.9961 8.5L12.4753 7.80025Z" fill="#E44F26"/>
<path d="M15 7.96439L17.0425 7.39814L17.523 2.01514H15V7.96439Z" fill="#F1662A"/>
<path d="M15 4.35184H13.9775L13.907 3.56059H15V2.78784H13.0625L13.081 2.99534L13.2708 5.12459H15V4.35184ZM15 6.35859L14.9965 6.35959L14.136 6.12734L14.081 5.51109H13.3052L13.4135 6.72409L14.9965 7.16359L15 7.16259V6.35859Z" fill="#EBEBEB"/>
<path d="M14.9971 4.35184V5.12459H15.9486L15.8591 6.12684L14.9971 6.35934V7.16334L16.5813 6.72409L16.5928 6.59359L16.7743 4.55934L16.7933 4.35184H14.9971ZM14.9971 2.78784V3.56059H16.8636L16.8791 3.38709L16.9143 2.99534L16.9328 2.78784H14.9971Z" fill="white"/>
<path d="M1.17574 8.13266L0.547363 1.08447H7.45236L6.82336 8.1316L3.99568 8.91554L1.17574 8.13266Z" fill="#1572B6"/>
<path d="M4 8.31627L6.28494 7.68277L6.8225 1.66064H4V8.31627Z" fill="#33A9DC"/>
<path d="M4 4.21422H5.14388L5.22288 3.32904H4V2.4646H6.16762L6.14687 2.69654L5.93437 5.07866H4V4.21422Z" fill="white"/>
<path d="M4.00506 6.45924L4.00125 6.46036L3.03856 6.20042L2.977 5.51099H2.10938L2.23044 6.8683L4.00113 7.35974L4.00506 7.35861V6.45924Z" fill="#EBEBEB"/>
<path d="M5.0702 5.04224L4.96608 6.19986L4.00195 6.46011V7.35949L5.77408 6.86836L5.78708 6.7223L5.93745 5.04224H5.0702Z" fill="white"/>
<path d="M4.00278 2.4646V3.32904H1.91478L1.89746 3.13479L1.85809 2.69654L1.8374 2.4646H4.00278ZM3.99984 4.21435V5.07879H3.04928L3.03196 4.88454L2.99253 4.44629L2.9719 4.21435H3.99984Z" fill="#EBEBEB"/>
</svg>
