<svg width="8" height="8" viewBox="0 0 8 8" fill="none" xmlns="http://www.w3.org/2000/svg">
<path d="M5.96426 0.421875L5.7377 0.740625L6.51113 1.28906L6.7377 0.971875L5.96426 0.421875ZM5.06738 0.614062L4.84707 0.9375L6.58613 2.12812L6.80645 1.80469L5.06738 0.614062ZM4.95332 1.44844L3.86113 2.74219C3.7002 2.70938 3.53457 2.69219 3.36426 2.69219C2.00801 2.69219 0.907227 3.79375 0.907227 5.15C0.907227 6.5 2.00801 7.60938 3.36426 7.60938C4.72051 7.60938 5.82207 6.5 5.82207 5.15C5.82207 4.55938 5.6127 4.01719 5.26582 3.59375L6.06895 2.23594L4.95332 1.44844ZM5.06895 2.05781L5.52988 2.3625L4.80332 3.58125C5.21113 3.95469 5.46738 4.49063 5.46738 5.0875C5.46738 6.2125 4.55332 7.125 3.42676 7.125C2.30176 7.125 1.38691 6.2125 1.38691 5.0875C1.38691 3.96094 2.30176 3.04688 3.42676 3.04688C3.77988 3.04688 4.1127 3.1375 4.40332 3.29531L5.06895 2.05781ZM4.57676 4.87813C3.8377 4.86719 2.60488 5.78906 1.79082 5.08906C1.79238 5.99063 2.5252 6.71875 3.42676 6.71875C4.30332 6.71875 5.02051 6.03125 5.06113 5.16406C4.95176 4.95781 4.78301 4.88125 4.57676 4.87813ZM4.39707 5.24219C4.47676 5.24062 4.54863 5.26562 4.59551 5.32031C4.70332 5.44375 4.64551 5.67031 4.46582 5.82656C4.2877 5.98281 4.05488 6.00938 3.94707 5.88594C3.83926 5.7625 3.89707 5.53594 4.0752 5.37969C4.17676 5.29219 4.29395 5.24531 4.39707 5.24219ZM3.51426 6.00938C3.53301 6.00938 3.55176 6.01094 3.57207 6.01406C3.72676 6.0375 3.84082 6.14219 3.8252 6.25C3.80957 6.35938 3.67207 6.42188 3.51582 6.40625C3.36113 6.375 3.24707 6.28125 3.2627 6.16719C3.27676 6.07344 3.38301 6.00938 3.51426 6.00938Z" fill="#0D99FF"/>
</svg>
