<svg width="36" height="36" viewBox="0 0 36 36" fill="none" xmlns="http://www.w3.org/2000/svg">
<path d="M32.565 30.435L30.435 32.565C30.154 32.8444 29.7738 33.0012 29.3775 33.0012C28.9813 33.0012 28.6011 32.8444 28.32 32.565L10.5 14.775C10.0123 14.9165 9.50782 14.9922 9.00003 15C8.04498 14.9993 7.1039 14.7707 6.25501 14.333C5.40613 13.8954 4.67398 13.2615 4.11942 12.4839C3.56487 11.7064 3.20394 10.8077 3.06664 9.86257C2.92934 8.91745 3.01964 7.9532 3.33003 7.05L7.14003 10.86L7.93503 10.065L10.065 7.935L10.86 7.14L7.05003 3.33C7.95323 3.01961 8.91748 2.92931 9.8626 3.06661C10.8077 3.20391 11.7064 3.56484 12.484 4.11939C13.2615 4.67395 13.8955 5.4061 14.3331 6.25499C14.7707 7.10387 14.9993 8.04495 15 9C14.9922 9.50779 14.9165 10.0123 14.775 10.5L32.565 28.32C32.8444 28.601 33.0012 28.9812 33.0012 29.3775C33.0012 29.7738 32.8444 30.154 32.565 30.435ZM3.43503 28.32C3.15565 28.601 2.99884 28.9812 2.99884 29.3775C2.99884 29.7738 3.15565 30.154 3.43503 30.435L5.56503 32.565C5.84607 32.8444 6.22625 33.0012 6.62253 33.0012C7.01881 33.0012 7.39899 32.8444 7.68003 32.565L15.885 24.375L11.64 20.13M30 3L24 6V9L20.745 12.255L23.745 15.255L27 12H30L33 6L30 3Z" fill="#4A7DBF"/>
</svg>
