<svg width="9" height="9" viewBox="0 0 9 9" fill="none" xmlns="http://www.w3.org/2000/svg">
<path d="M3.36225 6.19139L2.95359 5.78077C2.81374 5.64037 2.62893 5.55367 2.43156 5.53588C2.2342 5.51809 2.03686 5.57033 1.87415 5.68346L1.68291 5.81649C1.57486 5.8916 1.48588 5.99095 1.42308 6.10659C1.36028 6.22223 1.32539 6.35096 1.32122 6.48249L1.31165 6.77555C1.30808 6.88946 1.28147 7.00147 1.23342 7.10482C1.18537 7.20817 1.11689 7.30071 1.03209 7.37686L0.891467 7.50286C0.887123 7.50691 0.884169 7.51222 0.88303 7.51805C0.877136 7.55035 0.883341 7.58368 0.90046 7.61169C0.917579 7.63971 0.944414 7.66044 0.975842 7.66992L1.7009 7.89014L1.80975 7.90983C2.10452 7.96349 2.40826 7.93783 2.68986 7.83548C2.97145 7.73313 3.22078 7.55777 3.41231 7.32736C3.54684 7.16569 3.61626 6.95967 3.60701 6.74956C3.59775 6.53944 3.51048 6.3406 3.36225 6.19139Z" fill="#FFB02E"/>
<path d="M3.20129 4.80566L4.29957 4.94826L4.38676 6.0066L3.88614 6.50048C3.83302 6.55283 3.76129 6.58195 3.68671 6.58142C3.61213 6.58089 3.54082 6.55077 3.48845 6.49766L2.69814 5.69723C2.64578 5.64411 2.61667 5.57238 2.61719 5.4978C2.61772 5.42322 2.64785 5.35191 2.70095 5.29954L3.20129 4.80566Z" fill="#D3D3D3"/>
<path d="M3.20117 4.80576L4.38664 6.0067L8.10223 2.16398C8.23191 2.02866 8.30369 1.8481 8.3023 1.66069C8.30091 1.47327 8.22648 1.29379 8.09482 1.16041C7.96315 1.02702 7.78465 0.950259 7.59727 0.946439C7.40989 0.942618 7.22841 1.01204 7.09142 1.13995L3.20117 4.80576Z" fill="#F92F60"/>
</svg>
