<svg width="14" height="14" viewBox="0 0 14 14" fill="none" xmlns="http://www.w3.org/2000/svg">
<path d="M7.00016 2.33325C7.619 2.33325 8.21249 2.57908 8.65008 3.01667C9.08766 3.45425 9.3335 4.04775 9.3335 4.66659C9.3335 5.28542 9.08766 5.87892 8.65008 6.3165C8.21249 6.75409 7.619 6.99992 7.00016 6.99992C6.38132 6.99992 5.78783 6.75409 5.35025 6.3165C4.91266 5.87892 4.66683 5.28542 4.66683 4.66659C4.66683 4.04775 4.91266 3.45425 5.35025 3.01667C5.78783 2.57908 6.38132 2.33325 7.00016 2.33325ZM7.00016 3.49992C6.69074 3.49992 6.394 3.62283 6.1752 3.84163C5.95641 4.06042 5.8335 4.35717 5.8335 4.66659C5.8335 4.976 5.95641 5.27275 6.1752 5.49154C6.394 5.71034 6.69074 5.83325 7.00016 5.83325C7.30958 5.83325 7.60633 5.71034 7.82512 5.49154C8.04391 5.27275 8.16683 4.976 8.16683 4.66659C8.16683 4.35717 8.04391 4.06042 7.82512 3.84163C7.60633 3.62283 7.30958 3.49992 7.00016 3.49992ZM7.00016 7.58325C8.55766 7.58325 11.6668 8.35909 11.6668 9.91659V11.6666H2.3335V9.91659C2.3335 8.35909 5.44266 7.58325 7.00016 7.58325ZM7.00016 8.69158C5.26766 8.69158 3.44183 9.54325 3.44183 9.91659V10.5583H10.5585V9.91659C10.5585 9.54325 8.73266 8.69158 7.00016 8.69158Z" fill="white"/>
<path d="M11.6665 4.66659V3.49992H10.4998C10.3346 3.49992 10.1961 3.44392 10.0845 3.33192C9.97289 3.21992 9.91689 3.08147 9.9165 2.91659C9.91611 2.7517 9.97211 2.61325 10.0845 2.50125C10.1969 2.38925 10.3353 2.33325 10.4998 2.33325H11.6665C11.9873 2.33325 12.2621 2.44759 12.4908 2.67625C12.7194 2.90492 12.8336 3.17947 12.8332 3.49992V4.66659C12.8332 4.83186 12.7772 4.9705 12.6652 5.0825C12.5532 5.1945 12.4147 5.25031 12.2498 5.24992C12.0849 5.24953 11.9465 5.19353 11.8345 5.08192C11.7225 4.97031 11.6665 4.83186 11.6665 4.66659ZM1.1665 4.66659V3.49992C1.1665 3.17909 1.28084 2.90453 1.5095 2.67625C1.73817 2.44797 2.01273 2.33364 2.33317 2.33325H3.49984C3.66511 2.33325 3.80375 2.38925 3.91575 2.50125C4.02775 2.61325 4.08356 2.7517 4.08317 2.91659C4.08278 3.08147 4.02678 3.22011 3.91517 3.3325C3.80356 3.44489 3.66511 3.5007 3.49984 3.49992H2.33317V4.66659C2.33317 4.83186 2.27717 4.9705 2.16517 5.0825C2.05317 5.1945 1.91473 5.25031 1.74984 5.24992C1.58495 5.24953 1.4465 5.19353 1.3345 5.08192C1.2225 4.97031 1.1665 4.83186 1.1665 4.66659ZM11.6665 11.6666H10.4998C10.3346 11.6666 10.1961 11.6106 10.0845 11.4986C9.97289 11.3866 9.91689 11.2481 9.9165 11.0833C9.91611 10.9184 9.97211 10.7799 10.0845 10.6679C10.1969 10.5559 10.3353 10.4999 10.4998 10.4999H11.6665V9.33325C11.6665 9.16797 11.7225 9.02953 11.8345 8.91792C11.9465 8.80631 12.0849 8.75031 12.2498 8.74992C12.4147 8.74953 12.5534 8.80553 12.6658 8.91792C12.7781 9.03031 12.8339 9.16875 12.8332 9.33325V10.4999C12.8332 10.8208 12.719 11.0955 12.4908 11.3242C12.2625 11.5528 11.9877 11.667 11.6665 11.6666ZM2.33317 11.6666C2.01234 11.6666 1.73778 11.5524 1.5095 11.3242C1.28123 11.0959 1.16689 10.8211 1.1665 10.4999V9.33325C1.1665 9.16797 1.2225 9.02953 1.3345 8.91792C1.4465 8.80631 1.58495 8.75031 1.74984 8.74992C1.91473 8.74953 2.05337 8.80553 2.16575 8.91792C2.27814 9.03031 2.33395 9.16875 2.33317 9.33325V10.4999H3.49984C3.66511 10.4999 3.80375 10.5559 3.91575 10.6679C4.02775 10.7799 4.08356 10.9184 4.08317 11.0833C4.08278 11.2481 4.02678 11.3868 3.91517 11.4992C3.80356 11.6116 3.66511 11.6674 3.49984 11.6666H2.33317ZM3.49984 8.16659V5.83325C3.49984 5.51242 3.61417 5.23786 3.84284 5.00959C4.0715 4.78131 4.34606 4.66697 4.6665 4.66659H9.33317C9.654 4.66659 9.92875 4.78092 10.1574 5.00959C10.3861 5.23825 10.5002 5.51281 10.4998 5.83325V8.16659C10.4998 8.48742 10.3857 8.76217 10.1574 8.99084C9.92914 9.2195 9.65439 9.33364 9.33317 9.33325H4.6665C4.34567 9.33325 4.07111 9.21911 3.84284 8.99084C3.61456 8.76256 3.50023 8.48781 3.49984 8.16659ZM4.6665 8.16659H9.33317V5.83325H4.6665V8.16659Z" fill="#0D99FF" fill-opacity="0.45"/>
</svg>
