<svg width="13" height="9" viewBox="0 0 13 9" fill="none" xmlns="http://www.w3.org/2000/svg">
<path d="M7.70452 0.795449L7.31302 1.18695L7.85021 1.72414L8.41271 2.28664C8.54082 2.22326 8.683 2.19363 8.82576 2.20055C8.96853 2.20748 9.10717 2.25072 9.22855 2.3262C9.34993 2.40168 9.45004 2.50688 9.5194 2.63186C9.58876 2.75684 9.62507 2.89745 9.6249 3.04039C9.62187 3.16794 9.59217 3.29344 9.53771 3.40882L10.1171 3.97132C10.269 3.88354 10.4468 3.85152 10.6199 3.88078C10.7929 3.91005 10.9503 3.99876 11.0649 4.13164C11.145 4.20844 11.2083 4.30099 11.2509 4.40346C11.2935 4.50592 11.3144 4.61609 11.3124 4.72704C11.3126 4.94859 11.2262 5.16145 11.0716 5.3202C10.9939 5.40141 10.9002 5.46566 10.7964 5.50893C10.6927 5.5522 10.5811 5.57355 10.4686 5.57164C10.3574 5.57338 10.247 5.55261 10.1441 5.51056C10.0411 5.4685 9.94776 5.40605 9.86958 5.32695C9.73713 5.21137 9.64899 5.05333 9.62025 4.8799C9.59152 4.70647 9.62398 4.52845 9.71208 4.37632L9.14958 3.79695C9.12117 3.8098 9.09206 3.82107 9.0624 3.8307V5.62507C9.22568 5.68324 9.36709 5.79027 9.4674 5.93164C9.56978 6.07215 9.62492 6.24153 9.6249 6.41539C9.6271 6.52677 9.60632 6.6374 9.56383 6.74038C9.52134 6.84336 9.45806 6.93647 9.37796 7.01389C9.2248 7.16686 9.01839 7.25465 8.80196 7.25886C8.64556 7.26374 8.49092 7.22477 8.35553 7.14634C8.22013 7.06791 8.10939 6.95316 8.03582 6.81506C7.96225 6.67696 7.92879 6.52104 7.93923 6.36491C7.94967 6.20879 8.00359 6.05871 8.0949 5.93164C8.1952 5.79027 8.33661 5.68324 8.4999 5.62507V3.8307C8.33626 3.7732 8.19466 3.66602 8.0949 3.52414C7.99216 3.3838 7.93698 3.2143 7.9374 3.04039C7.93716 2.91244 7.96702 2.78622 8.02458 2.67195L6.92771 1.57507L4.79612 3.7047C4.69158 3.80915 4.60865 3.93318 4.55206 4.06969C4.49547 4.2062 4.46633 4.35252 4.46631 4.5003C4.46628 4.64807 4.49537 4.79441 4.55191 4.93094C4.60845 5.06747 4.69134 5.19152 4.79583 5.29601L7.70452 8.2047C7.91549 8.4156 8.20159 8.53408 8.4999 8.53408C8.79821 8.53408 9.0843 8.4156 9.29527 8.2047L12.2045 5.29545C12.4154 5.08448 12.5339 4.79838 12.5339 4.50007C12.5339 4.20176 12.4154 3.91567 12.2045 3.7047L9.29527 0.795449C9.0843 0.584544 8.79821 0.466064 8.4999 0.466064C8.20159 0.466064 7.91549 0.584544 7.70452 0.795449Z" fill="#E64A19"/>
<path d="M4.5 0.75C4.00754 0.75 3.51991 0.846997 3.06494 1.03545C2.60997 1.22391 2.19657 1.50013 1.84835 1.84835C1.14509 2.55161 0.75 3.50544 0.75 4.5C0.75 6.1575 1.82625 7.56375 3.315 8.0625C3.5025 8.0925 3.5625 7.97625 3.5625 7.875V7.24125C2.52375 7.46625 2.3025 6.73875 2.3025 6.73875C2.13 6.30375 1.88625 6.1875 1.88625 6.1875C1.545 5.955 1.9125 5.9625 1.9125 5.9625C2.2875 5.98875 2.48625 6.34875 2.48625 6.34875C2.8125 6.91875 3.36375 6.75 3.5775 6.66C3.61125 6.41625 3.70875 6.25125 3.81375 6.1575C2.98125 6.06375 2.1075 5.74125 2.1075 4.3125C2.1075 3.89625 2.25 3.5625 2.49375 3.29625C2.45625 3.2025 2.325 2.8125 2.53125 2.30625C2.53125 2.30625 2.84625 2.205 3.5625 2.68875C3.85875 2.60625 4.18125 2.565 4.5 2.565C4.81875 2.565 5.14125 2.60625 5.4375 2.68875C6.15375 2.205 6.46875 2.30625 6.46875 2.30625C6.675 2.8125 6.54375 3.2025 6.50625 3.29625C6.75 3.5625 6.8925 3.89625 6.8925 4.3125C6.8925 5.745 6.015 6.06 5.17875 6.15375C5.31375 6.27 5.4375 6.49875 5.4375 6.8475V7.875C5.4375 7.97625 5.4975 8.09625 5.68875 8.0625C7.1775 7.56 8.25 6.1575 8.25 4.5C8.25 4.00754 8.153 3.51991 7.96455 3.06494C7.77609 2.60997 7.49987 2.19657 7.15165 1.84835C6.80343 1.50013 6.39003 1.22391 5.93506 1.03545C5.48009 0.846997 4.99246 0.75 4.5 0.75Z" fill="white"/>
</svg>
