<svg width="36" height="36" viewBox="0 0 36 36" fill="none" xmlns="http://www.w3.org/2000/svg">
<path d="M28.575 7.36508C27.1996 5.97624 25.5615 4.87503 23.7562 4.12562C21.9509 3.37622 20.0146 2.99361 18.06 3.00008C9.86995 3.00008 3.19495 9.67508 3.19495 17.8651C3.19495 20.4901 3.88495 23.0401 5.17495 25.2901L3.07495 33.0001L10.95 30.9301C13.125 32.1151 15.57 32.7451 18.06 32.7451C26.25 32.7451 32.925 26.0701 32.925 17.8801C32.925 13.9051 31.38 10.1701 28.575 7.36508ZM18.06 30.2251C15.84 30.2251 13.665 29.6251 11.76 28.5001L11.31 28.2301L6.62995 29.4601L7.87495 24.9001L7.57495 24.4351C6.34127 22.4657 5.68634 20.189 5.68495 17.8651C5.68495 11.0551 11.235 5.50508 18.045 5.50508C21.345 5.50508 24.45 6.79508 26.775 9.13508C27.9264 10.2809 28.8388 11.6439 29.4594 13.1451C30.0799 14.6463 30.3962 16.2557 30.39 17.8801C30.42 24.6901 24.87 30.2251 18.06 30.2251ZM24.84 20.9851C24.465 20.8051 22.635 19.9051 22.305 19.7701C21.96 19.6501 21.72 19.5901 21.465 19.9501C21.21 20.3251 20.505 21.1651 20.295 21.4051C20.085 21.6601 19.86 21.6901 19.485 21.4951C19.11 21.3151 17.91 20.9101 16.5 19.6501C15.39 18.6601 14.655 17.4451 14.43 17.0701C14.22 16.6951 14.4 16.5001 14.595 16.3051C14.76 16.1401 14.97 15.8701 15.15 15.6601C15.33 15.4501 15.405 15.2851 15.525 15.0451C15.645 14.7901 15.585 14.5801 15.495 14.4001C15.405 14.2201 14.655 12.3901 14.355 11.6401C14.055 10.9201 13.74 11.0101 13.515 10.9951H12.795C12.54 10.9951 12.15 11.0851 11.805 11.4601C11.475 11.8351 10.515 12.7351 10.515 14.5651C10.515 16.3951 11.85 18.1651 12.03 18.4051C12.21 18.6601 14.655 22.4101 18.375 24.0151C19.26 24.4051 19.95 24.6301 20.49 24.7951C21.375 25.0801 22.185 25.0351 22.83 24.9451C23.55 24.8401 25.0349 24.0451 25.3349 23.1751C25.6499 22.3051 25.65 21.5701 25.545 21.4051C25.44 21.2401 25.215 21.1651 24.84 20.9851Z" fill="white"/>
</svg>
